# xmcd
#
# Track frame offsets:
#	150
#	12902
#	21710
#	36397
#	58085
#	76145
#	89405
#	109977
#	124117
#	137020
#
# Disc length: 1996
#
# Revision: 2
# Processed by: cddbd v1.5.1PL0 Copyright (c) Steve Scherf et al.
# Submitted via: ExactAudioCopy v0.90a11
# Normalized: r0:DSETVAR2,TDELIM( - ),TSWAP
#
DISCID=8807ca0a
DTITLE=Various Artist - Hot Tracks Train Super Hits
DYEAR=1900
DGENRE=
TTITLE0=Roy Acuff - Wabash Cannonball
TTITLE1=Johnny Cash - Wreck Of The Old 97
TTITLE2=Asleep At The Wheel - Choo Choo Ch'Boogie
TTITLE3=Willie Nelson - City Of New Orleans
TTITLE4=Rosanne Cash - Runaway Train
TTITLE5=Billy Joe Shaver - Georgia On A Fast Train
TTITLE6=The Highwayman - Desperados Waiting For A Train
TTITLE7=Marty Stuart - Last Train Done Gone Down
TTITLE8=Waylon and Willie - Put Me On A Train Back To Texas
TTITLE9=Johnny Cash - Folsom Prison Blues
EXTD=
EXTT0=
EXTT1=
EXTT2=
EXTT3=
EXTT4=
EXTT5=
EXTT6=Nelson, Cash, Jennings, Kristofferson
EXTT7=
EXTT8=
EXTT9=
PLAYORDER=
